<?xml version="1.0" standalone="no"?>
<!DOCTYPE svg PUBLIC "-//W3C//DTD SVG 20010904//EN"
 "http://www.w3.org/TR/2001/REC-SVG-20010904/DTD/svg10.dtd">
<svg version="1.0" xmlns="http://www.w3.org/2000/svg"
 width="700.000000pt" height="700.000000pt" viewBox="0 0 700.000000 700.000000"
 preserveAspectRatio="xMidYMid meet">
<metadata>
Created by potrace 1.14, written by Peter Selinger 2001-2017
</metadata>
<g transform="translate(0.000000,700.000000) scale(0.100000,-0.100000)"
fill="#000000" stroke="none">
<path d="M4807 6994 c-1 -2 -25 -6 -52 -10 -112 -15 -292 -76 -430 -146 -425
-215 -767 -682 -833 -1138 -9 -60 -9 -296 0 -305 9 -9 148 -10 214 -2 469 57
931 469 1112 992 66 190 96 413 80 599 -1 9 -15 14 -45 13 -24 0 -44 -2 -46
-3z"/>
<path d="M4698 5315 c-2 -2 -34 -6 -72 -9 -103 -9 -256 -43 -381 -83 -94 -30
-398 -144 -460 -172 -11 -5 -43 -17 -71 -26 -172 -54 -241 -44 -570 78 -173
65 -281 101 -399 136 -31 10 -70 18 -120 26 -16 3 -55 10 -85 17 -80 15 -263
17 -383 2 -257 -31 -510 -137 -737 -308 -267 -201 -497 -524 -620 -871 -34
-98 -87 -286 -96 -342 -3 -20 -8 -45 -10 -57 -2 -11 -7 -37 -9 -56 -3 -19 -7
-44 -10 -55 -2 -11 -7 -47 -10 -80 -3 -33 -8 -80 -10 -105 -5 -52 -5 -394 0
-460 5 -67 16 -182 20 -201 2 -10 6 -39 10 -66 6 -45 25 -151 46 -253 22 -107
61 -254 126 -465 21 -69 110 -308 138 -370 12 -27 39 -88 60 -135 166 -385
454 -820 710 -1074 297 -294 565 -418 817 -376 79 13 170 42 458 143 272 95
429 129 600 130 178 2 287 -24 613 -142 423 -153 620 -167 852 -61 155 72 356
239 493 409 20 25 40 48 43 51 14 12 122 164 191 270 164 252 346 612 488 968
18 45 31 84 29 86 -2 2 -38 20 -79 41 -242 124 -485 342 -626 563 -101 157
-181 364 -209 542 -3 19 -10 60 -15 90 -9 54 -6 354 4 417 46 283 148 516 327
745 69 90 222 228 332 301 42 28 77 56 77 62 0 28 -180 234 -271 310 -209 176
-494 309 -749 350 -19 3 -42 8 -50 10 -43 12 -382 29 -392 20z"/>
</g>
</svg>
